<?xml version="1.0" standalone="no"?>
<!DOCTYPE svg PUBLIC "-//W3C//DTD SVG 20010904//EN"
 "http://www.w3.org/TR/2001/REC-SVG-20010904/DTD/svg10.dtd">
<svg version="1.0" xmlns="http://www.w3.org/2000/svg"
 width="200.000000pt" height="84.000000pt" viewBox="0 0 200.000000 84.000000"
 preserveAspectRatio="xMidYMid meet">

<g transform="translate(0.000000,84.000000) scale(0.100000,-0.100000)"
fill="#000000" stroke="none">
<path d="M0 420 l0 -420 1000 0 1000 0 0 420 0 420 -1000 0 -1000 0 0 -420z
m214 244 c9 -3 33 -37 53 -75 21 -38 43 -69 48 -69 6 0 24 26 40 58 44 83 55
92 121 92 99 0 94 14 94 -260 0 -272 4 -260 -85 -260 -55 0 -85 14 -85 39 0
10 -9 21 -20 24 -11 3 -20 13 -20 22 0 9 9 19 20 22 18 5 20 14 20 74 0 38 -2
69 -4 69 -2 0 -13 -16 -25 -35 -18 -31 -25 -35 -60 -35 -38 0 -42 3 -65 48
l-25 47 -1 -131 c0 -148 2 -144 -76 -144 -88 0 -84 -11 -84 260 0 217 2 240
18 249 19 11 111 15 136 5z m544 -19 l20 -25 17 26 c11 17 24 24 38 22 21 -3
22 -8 22 -88 0 -84 0 -85 -25 -85 -20 0 -26 6 -30 30 -4 22 -11 30 -25 30 -14
0 -21 -8 -25 -30 -4 -24 -10 -30 -30 -30 -24 0 -25 3 -28 74 -2 41 -1 80 2 88
9 21 43 15 64 -12z m251 16 c23 -15 5 -41 -29 -41 -16 0 -30 -4 -30 -10 0 -5
11 -10 25 -10 18 0 25 -5 25 -20 0 -15 -7 -20 -25 -20 -37 0 -30 -18 8 -22 24
-2 32 -8 32 -23 0 -18 -7 -20 -60 -20 l-60 0 -3 74 c-2 41 -1 80 2 88 6 15 92
18 115 4z m164 -10 c16 -16 15 -127 -1 -143 -7 -7 -37 -13 -70 -13 l-57 0 -3
74 c-4 102 -3 104 64 99 30 -3 60 -10 67 -17z m145 -9 c2 -13 -3 -25 -12 -28
-22 -8 -22 -74 0 -74 10 0 14 -7 12 -22 -3 -21 -9 -23 -58 -23 -49 0 -55 2
-58 23 -2 15 2 22 12 22 22 0 22 65 1 74 -15 6 -20 37 -8 50 4 4 30 6 58 4 43
-3 50 -6 53 -26z m147 -2 c0 -21 -5 -26 -33 -28 -31 -3 -33 -6 -30 -35 3 -28
7 -32 36 -35 28 -3 33 -7 30 -25 -3 -19 -9 -22 -52 -21 -60 1 -76 19 -76 84 0
68 23 91 90 87 30 -2 35 -5 35 -27z m131 22 c19 -12 47 -117 40 -146 -8 -32
-45 -36 -53 -6 -7 26 -39 26 -46 -1 -4 -13 -12 -19 -24 -17 -25 5 -26 112 0
151 17 27 57 36 83 19z m112 -4 c7 -7 12 -36 12 -65 0 -29 5 -53 10 -53 6 0
10 12 10 26 0 22 4 25 28 22 25 -3 27 -6 27 -48 l0 -45 -65 0 -65 0 -3 74 c-2
41 -1 80 2 88 7 16 28 17 44 1z m-950 -350 c7 -7 12 -26 12 -43 0 -35 -15 -55
-42 -55 -11 0 -23 -11 -28 -26 -7 -19 -16 -25 -33 -22 -20 3 -22 9 -25 67 -2
35 -1 70 2 77 7 18 97 19 114 2z m146 -37 c23 -65 19 -105 -12 -109 -17 -3
-25 2 -29 17 -7 27 -29 27 -36 0 -4 -13 -12 -19 -24 -17 -15 3 -18 13 -17 53
1 28 6 62 12 78 10 23 17 27 50 27 37 0 39 -2 56 -49z m95 23 l21 -27 0 27 c0
21 5 26 25 26 26 0 26 0 23 -77 -2 -64 -6 -78 -20 -81 -12 -2 -23 9 -34 35
l-17 38 -6 -35 c-6 -37 -36 -54 -52 -28 -10 15 -12 132 -2 141 14 15 43 6 62
-19z m215 10 c10 -10 16 -33 16 -64 0 -62 -25 -83 -92 -78 l-43 3 -3 64 c-2
35 -1 70 2 77 8 20 100 18 120 -2z m153 0 c3 -10 0 -22 -8 -28 -8 -6 -13 -21
-11 -33 3 -19 -2 -23 -25 -24 -25 -2 -25 -2 7 -8 26 -4 35 -11 35 -26 0 -18
-7 -20 -55 -20 l-55 0 -3 78 -3 77 56 0 c42 0 57 -4 62 -16z m84 -5 l11 -21
14 21 c9 12 26 21 40 21 25 0 25 -1 22 -77 -3 -72 -5 -78 -25 -81 -20 -3 -23
1 -23 34 0 28 -3 35 -11 27 -6 -6 -17 -9 -24 -6 -9 3 -15 -5 -17 -24 -2 -22
-8 -28 -28 -28 -24 0 -25 3 -28 64 -2 35 -1 70 2 77 8 22 54 17 67 -7z m219 1
c0 -11 -7 -23 -15 -26 -21 -8 -20 -64 1 -64 10 0 14 -7 12 -22 -3 -20 -9 -23
-53 -23 -44 0 -50 3 -53 23 -2 15 2 22 12 22 21 0 22 56 1 64 -8 3 -15 15 -15
26 0 18 6 20 55 20 49 0 55 -2 55 -20z m128 -2 c-2 -17 -11 -24 -30 -26 -24
-3 -28 -8 -28 -33 0 -26 3 -29 31 -29 26 0 30 -3 27 -22 -2 -18 -11 -24 -35
-26 -57 -6 -73 11 -73 76 0 32 5 63 12 70 7 7 32 12 56 12 39 0 43 -2 40 -22z
m138 -14 c20 -49 15 -118 -9 -122 -12 -3 -20 4 -24 17 -7 27 -29 27 -36 0 -4
-13 -12 -20 -24 -17 -24 4 -29 73 -9 122 13 32 19 36 51 36 32 0 38 -4 51 -36z"/>
<path d="M1100 575 c0 -24 5 -35 15 -35 10 0 15 11 15 35 0 24 -5 35 -15 35
-10 0 -15 -11 -15 -35z"/>
<path d="M1550 595 c0 -8 5 -15 10 -15 6 0 10 7 10 15 0 8 -4 15 -10 15 -5 0
-10 -7 -10 -15z"/>
<path d="M700 260 c0 -5 5 -10 10 -10 6 0 10 5 10 10 0 6 -4 10 -10 10 -5 0
-10 -4 -10 -10z"/>
<path d="M840 260 c0 -5 5 -10 11 -10 5 0 7 5 4 10 -3 6 -8 10 -11 10 -2 0 -4
-4 -4 -10z"/>
<path d="M1150 240 c0 -16 5 -30 10 -30 6 0 10 14 10 30 0 17 -4 30 -10 30 -5
0 -10 -13 -10 -30z"/>
<path d="M1875 260 c-3 -5 -1 -10 4 -10 6 0 11 5 11 10 0 6 -2 10 -4 10 -3 0
-8 -4 -11 -10z"/>
</g>
</svg>
